<svg width="22" height="29" viewBox="0 0 22 29" fill="none" xmlns="http://www.w3.org/2000/svg">
<path d="M15.647 23.2061C14.5205 23.916 13.1708 24.2709 11.5977 24.2709C9.89816 24.2709 8.42092 23.8206 7.16597 22.9201C5.91102 22.0195 5.08198 20.7584 4.67887 19.1366L0 19.8594C0.244922 21.5307 0.919828 23.1098 1.9586 24.4419C3.0023 25.7615 4.36333 26.7953 5.91465 27.4466C7.52298 28.1451 9.32924 28.4938 11.3334 28.4927C13.1542 28.5124 14.962 28.1831 16.6589 27.5228C18.2039 26.9344 19.554 25.9267 20.5575 24.6129C21.4222 23.4552 21.9242 22.0671 22 20.6242H17.3196C17.2232 21.7014 16.6683 22.5641 15.647 23.2061Z" fill="#092433"/>
<path d="M20.8591 15.9422C20.1621 14.9909 19.241 14.2264 18.1777 13.7163C17.0592 13.2111 15.9015 12.7978 14.716 12.4805L9.81016 11.0737C8.59251 10.769 7.61632 10.3758 6.88159 9.8939C6.14686 9.41202 5.77898 8.70216 5.77794 7.76431C5.77275 7.06811 6.03095 6.39569 6.50076 5.88188C7.02532 5.30825 7.68615 4.87626 8.42204 4.6259C9.24441 4.33111 10.1154 4.19554 10.9884 4.2264C12.3865 4.22662 13.7479 4.67319 14.8745 5.50105C15.9764 6.30433 16.7364 7.49208 17.0041 8.8291L21.8353 8.03012C21.428 6.33267 20.7368 4.88756 19.7617 3.69479C18.7767 2.49624 17.5091 1.56143 16.073 0.974515C14.4815 0.331626 12.7811 0.00125027 11.0646 0.00143487C9.16403 -0.0234362 7.45881 0.275017 5.94893 0.896793C4.52298 1.45399 3.28359 2.40293 2.37371 3.63416C1.49908 4.83937 1.06177 6.29018 1.06177 7.9866C1.06177 10.0913 1.6452 11.6571 2.81207 12.6841C3.97893 13.7111 5.42405 14.465 7.1474 14.9458L14.2217 17.0381C15.287 17.3676 16.073 17.7925 16.5797 18.3127C16.7262 18.4657 16.8536 18.6358 16.959 18.8195H21.9503C21.8136 17.6734 21.4498 16.7143 20.8591 15.9422Z" fill="#EB4247"/>
</svg>
