<svg width="135" height="32" viewBox="0 0 135 32" fill="none" xmlns="http://www.w3.org/2000/svg">
<path d="M106.031 24.8593L106.273 28.8204C105.645 29.1585 103.954 29.3035 103.133 29.3035C98.8819 29.3035 95.8386 26.6466 95.742 21.961H100.234C100.428 23.9415 101.973 25.1492 103.809 25.1492C104.244 25.1009 105.645 24.9559 106.031 24.8593ZM45.0693 29.0136H49.5617V4.03955H45.0693V29.0136ZM84.5351 13.2176C86.6605 13.2176 88.4478 14.2804 89.269 15.8262L93.0369 13.7007C91.5877 10.8024 88.3512 8.91843 84.5351 8.91843C78.6901 8.91843 74.2459 13.3626 74.2459 19.2076C74.2459 25.0526 78.7384 29.4001 84.5834 29.4001C88.2063 29.4001 91.2979 27.7577 93.0369 25.1492L89.269 22.8305C88.3029 24.2314 86.5639 25.1009 84.5834 25.1009C81.202 25.1009 78.6901 22.5407 78.6901 19.1593C78.6901 15.7779 81.1537 13.2176 84.5351 13.2176ZM42.5091 18.2898C42.5091 13.0244 38.3548 8.91843 33.0411 8.91843C27.3411 8.91843 22.8969 13.3626 22.8969 19.0626C22.8969 24.9559 27.4377 29.4001 33.1377 29.4001C37.1954 29.4001 40.5285 27.806 41.9777 25.1492L38.4031 22.8305C37.4853 24.3763 35.4564 25.3424 33.2344 25.3424C30.0462 25.3424 27.8724 23.4102 27.3894 20.222H42.3641C42.4608 19.594 42.5091 18.8211 42.5091 18.2898ZM27.5343 16.7923C28.2106 14.2321 30.0945 12.5897 32.7996 12.5897C35.5047 12.5897 37.5336 14.3287 37.7751 16.7923H27.5343ZM71.734 18.2898C71.734 13.0244 67.5798 8.91843 62.2661 8.91843C56.566 8.91843 52.1219 13.3626 52.1219 19.0626C52.1219 24.9559 56.6627 29.4001 62.3627 29.4001C66.4204 29.4001 69.7535 27.806 71.2027 25.1492L67.6281 22.8305C66.7103 24.3763 64.6814 25.3424 62.4593 25.3424C59.2712 25.3424 57.0974 23.4102 56.6143 20.222H71.5891C71.6857 19.594 71.734 18.8211 71.734 18.2898ZM56.711 16.7923C57.3872 14.2321 59.2712 12.5897 61.9763 12.5897C64.6814 12.5897 66.7103 14.3287 66.9518 16.7923H56.711ZM127.624 18.2898C127.624 13.0244 123.47 8.91843 118.156 8.91843C112.456 8.91843 108.012 13.3626 108.012 19.0626C108.012 24.9559 112.552 29.4001 118.252 29.4001C122.31 29.4001 125.643 27.806 127.092 25.1492L123.518 22.8305C122.6 24.3763 120.571 25.3424 118.349 25.3424C115.161 25.3424 112.987 23.4102 112.504 20.222H127.479C127.576 19.594 127.624 18.8211 127.624 18.2898ZM112.649 16.7923C113.325 14.2321 115.209 12.5897 117.914 12.5897C120.619 12.5897 122.648 14.3287 122.89 16.7923H112.649ZM130.184 29.0136H134.676V4.03955H130.184V29.0136ZM14.8782 24.3763C13.8154 25.0526 12.5112 25.3907 11.0137 25.3907C9.41962 25.3907 8.01876 24.9559 6.81111 24.0864C5.60347 23.2169 4.83058 22.0576 4.44413 20.5118L0 21.1881C0.241529 22.8305 0.869504 24.2797 1.83562 25.5356C2.80173 26.7916 4.05768 27.7094 5.60347 28.3857C7.14925 29.0619 8.83995 29.4001 10.7239 29.4001C12.5595 29.4001 14.2502 29.1102 15.796 28.4823C17.3418 27.8543 18.5494 26.9365 19.5155 25.7288C20.3367 24.6661 20.7715 23.4102 20.8681 21.961H16.424C16.3273 22.9271 15.8443 23.7483 14.8782 24.3763Z" fill="#092433"/>
<path d="M100.185 20.2215H95.693V13.5553V9.30439V4.03906H100.185V9.30439H106.079V13.5553H100.185V20.2215ZM19.8046 17.4681C19.08 16.5019 18.2105 15.8257 17.2444 15.3426C16.2783 14.9079 15.1673 14.5214 13.9596 14.1833L9.32226 12.8307C8.16292 12.5409 7.24512 12.1544 6.52053 11.7197C5.84425 11.2849 5.4578 10.6086 5.4578 9.69083C5.4578 9.01455 5.69933 8.43488 6.13408 7.90352C6.56883 7.37215 7.19681 6.98571 7.9697 6.69587C8.74259 6.40604 9.56379 6.30943 10.385 6.30943C11.7859 6.35773 12.9935 6.74418 14.0562 7.51707C15.119 8.28996 15.7952 9.35269 16.0851 10.6569L20.6741 9.88406C20.2877 8.28996 19.6114 6.8891 18.6936 5.77806C17.7758 4.66703 16.6164 3.79753 15.1673 3.21786C13.7664 2.63819 12.1723 2.30005 10.4333 2.30005C8.69429 2.34835 7.1002 2.58988 5.65103 3.21786C4.20185 3.79753 3.09082 4.66703 2.26962 5.82637C1.44842 6.9374 1.01367 8.33827 1.01367 9.93236C1.01367 11.9129 1.54504 13.4104 2.65607 14.3765C3.7671 15.3426 5.11966 16.0672 6.76206 16.5019L13.5249 18.5308C14.5393 18.8206 15.2639 19.2554 15.7469 19.7384C15.8918 19.8833 15.9885 20.0283 16.0851 20.2215H20.819C20.7224 19.1105 20.336 18.1926 19.8046 17.4681Z" fill="#EB4247"/>
</svg>
