<svg width="38" height="29" viewBox="0 0 38 29" fill="none" xmlns="http://www.w3.org/2000/svg">
<path d="M31.6667 0H6.33333C2.85 0 0 2.61 0 5.8V23.2C0 26.39 2.85 29 6.33333 29H31.6667C35.15 29 38 26.39 38 23.2V5.8C38 2.61 35.15 0 31.6667 0ZM6.33333 2.9H31.6667C31.9833 2.9 32.1417 2.9 32.4583 3.045L20.1083 14.355C19.475 14.935 18.525 14.935 17.8917 14.355L5.54167 3.045C5.85833 2.9 6.01667 2.9 6.33333 2.9ZM3.16667 23.2V5.8C3.16667 5.51 3.16667 5.365 3.325 5.075L13.6167 14.5L12.6667 15.37L3.325 23.925C3.16667 23.635 3.16667 23.49 3.16667 23.2ZM31.6667 26.1H6.33333C6.01667 26.1 5.85833 26.1 5.54167 25.955L15.0417 17.255L15.8333 16.53C16.625 17.255 17.7333 17.69 19 17.69C20.2667 17.69 21.2167 17.255 22.1667 16.53L32.4583 25.955C32.1417 26.1 31.9833 26.1 31.6667 26.1ZM34.8333 23.2C34.8333 23.49 34.8333 23.635 34.675 23.925L24.3833 14.5L34.675 5.075C34.8333 5.365 34.8333 5.51 34.8333 5.8V23.2Z" fill="#092433"/>
</svg>
