<svg width="32" height="31" viewBox="0 0 32 31" fill="none" xmlns="http://www.w3.org/2000/svg">
<path d="M31.1927 26.2419L27.7888 29.4831C26.2321 30.9655 23.7566 31.1037 22.0286 29.8047L21.3036 29.2598C14.1098 23.8523 7.60689 17.6601 1.928 10.8102L1.35569 10.1199C-0.00843399 8.47446 0.136723 6.11728 1.69346 4.63494L5.09735 1.39373C6.58048 -0.0185122 8.67942 2.03001 10.8027 4.04152C12.9114 6.03929 15.0545 7.99072 13.6469 9.33103L11.5674 11.3111C10.716 12.1218 10.6049 13.3999 11.3048 14.3328C13.0426 16.6495 15.1712 18.6764 17.6042 20.3311C18.584 20.9975 19.9261 20.8918 20.7775 20.0811L22.857 18.101C24.1464 16.8732 26.2584 18.9185 28.4082 20.9093C30.5385 22.8819 32.7196 24.788 31.1927 26.2419Z" fill="#092433"/>
</svg>
