<svg width="24" height="14" viewBox="0 0 24 14" fill="none" xmlns="http://www.w3.org/2000/svg">
<path fill-rule="evenodd" clip-rule="evenodd" d="M23.1948 1.28987C23.3529 0.76251 23.1948 0.375 22.4421 0.375H19.9532C19.3204 0.375 19.0287 0.709752 18.8704 1.07888C18.8704 1.07888 17.6048 4.16392 15.8118 6.16785C15.2317 6.74793 14.968 6.9325 14.6516 6.9325C14.4934 6.9325 14.2561 6.74793 14.2561 6.22061V1.28987C14.2561 0.657038 14.0807 0.375 13.5533 0.375H9.64226C9.24679 0.375 9.00895 0.668713 9.00895 0.947076C9.00895 1.54699 9.9054 1.68534 9.99781 3.3729V7.03801C9.99781 7.84158 9.85269 7.98727 9.53627 7.98727C8.69254 7.98727 6.64015 4.88845 5.42289 1.34259C5.18434 0.653395 4.94507 0.375 4.30899 0.375H1.82013C1.10903 0.375 0.966797 0.709752 0.966797 1.07888C0.966797 1.7381 1.81058 5.0077 4.89557 9.33198C6.95222 12.2851 9.8499 13.8859 12.4867 13.8859C14.0687 13.8859 14.2644 13.5304 14.2644 12.918V10.686C14.2644 9.97488 14.4143 9.83297 14.9153 9.83297C15.2844 9.83297 15.9172 10.0175 17.3939 11.4414C19.0814 13.1289 19.3596 13.8859 20.3088 13.8859H22.7977C23.5088 13.8859 23.8643 13.5304 23.6592 12.8287C23.4347 12.1294 22.629 11.1148 21.56 9.91206C20.9798 9.22651 20.1097 8.48825 19.846 8.11903C19.4769 7.64447 19.5824 7.43348 19.846 7.01163C19.846 7.01163 22.8783 2.74006 23.1948 1.28987Z" fill="white"/>
</svg>
