<svg width="322" height="65" viewBox="0 0 322 65" fill="none" xmlns="http://www.w3.org/2000/svg">
<g clip-path="url(#clip0)">
<path d="M253.33 54.0888L253.907 63.6067C252.406 64.4192 248.367 64.7674 246.405 64.7674C236.249 64.7674 228.978 58.3834 228.747 47.1245H239.48C239.942 51.8834 243.635 54.7852 248.021 54.7852C249.059 54.6692 252.406 54.3209 253.33 54.0888ZM107.68 64.0709H118.413V4.06201H107.68V64.0709ZM201.971 26.1156C207.049 26.1156 211.32 28.6692 213.282 32.3834L222.284 27.2763C218.821 20.312 211.089 15.7852 201.971 15.7852C188.006 15.7852 177.388 26.4638 177.388 40.5084C177.388 54.5531 188.122 64.9995 202.087 64.9995C210.743 64.9995 218.129 61.0531 222.284 54.7852L213.282 49.2138C210.973 52.5799 206.819 54.6692 202.087 54.6692C194.008 54.6692 188.006 48.5174 188.006 40.3924C188.006 32.2674 193.892 26.1156 201.971 26.1156ZM101.563 38.3031C101.563 25.6513 91.6373 15.7852 78.9419 15.7852C65.3233 15.7852 54.7054 26.4638 54.7054 40.1602C54.7054 54.3209 65.5541 64.9995 79.1727 64.9995C88.8674 64.9995 96.8308 61.1692 100.293 54.7852L91.7527 49.2138C89.5598 52.9281 84.7125 55.2495 79.4036 55.2495C71.7864 55.2495 66.5928 50.6067 65.4387 42.9459H101.216C101.447 41.437 101.563 39.5799 101.563 38.3031ZM65.7849 34.7049C67.4007 28.5531 71.9018 24.6067 78.3649 24.6067C84.8279 24.6067 89.6752 28.7852 90.2523 34.7049H65.7849ZM171.387 38.3031C171.387 25.6513 161.462 15.7852 148.766 15.7852C135.148 15.7852 124.53 26.4638 124.53 40.1602C124.53 54.3209 135.378 64.9995 148.997 64.9995C158.692 64.9995 166.655 61.1692 170.118 54.7852L161.577 49.2138C159.384 52.9281 154.537 55.2495 149.228 55.2495C141.611 55.2495 136.417 50.6067 135.263 42.9459H171.041C171.272 41.437 171.387 39.5799 171.387 38.3031ZM135.494 34.7049C137.11 28.5531 141.611 24.6067 148.074 24.6067C154.537 24.6067 159.384 28.7852 159.961 34.7049H135.494ZM304.919 38.3031C304.919 25.6513 294.993 15.7852 282.298 15.7852C268.68 15.7852 258.062 26.4638 258.062 40.1602C258.062 54.3209 268.91 64.9995 282.529 64.9995C292.224 64.9995 300.187 61.1692 303.649 54.7852L295.109 49.2138C292.916 52.9281 288.069 55.2495 282.76 55.2495C275.143 55.2495 269.949 50.6067 268.795 42.9459H304.573C304.804 41.437 304.919 39.5799 304.919 38.3031ZM269.141 34.7049C270.757 28.5531 275.258 24.6067 281.721 24.6067C288.184 24.6067 293.031 28.7852 293.609 34.7049H269.141ZM311.036 64.0709H321.769V4.06201H311.036V64.0709ZM35.5469 52.9281C33.0079 54.5531 29.8918 55.3656 26.314 55.3656C22.5054 55.3656 19.1584 54.3209 16.2731 52.2317C13.3878 50.1424 11.5412 47.3567 10.6179 43.6424L0 45.2674C0.577061 49.2138 2.07742 52.6959 4.38566 55.7138C6.69391 58.7317 9.69462 60.937 13.3878 62.562C17.081 64.187 21.1204 64.9995 25.6215 64.9995C30.0072 64.9995 34.0466 64.3031 37.7398 62.7942C41.433 61.2852 44.3183 59.0799 46.6265 56.1781C48.5885 53.6245 49.6272 50.6067 49.8581 47.1245H39.2401C39.0093 49.4459 37.8552 51.4192 35.5469 52.9281Z" fill="white"/>
<path d="M239.365 42.9453H228.632V26.9275V16.7132V4.06138H239.365V16.7132H253.445V26.9275H239.365V42.9453ZM47.3193 36.3292C45.5881 34.0078 43.5107 32.3828 41.2024 31.2221C38.8942 30.1775 36.2397 29.2489 33.3544 28.4364L22.2748 25.1864C19.505 24.49 17.3121 23.5614 15.5809 22.5167C13.9652 21.4721 13.0419 19.8471 13.0419 17.6417C13.0419 16.0167 13.6189 14.6239 14.6576 13.3471C15.6964 12.0703 17.1967 11.1417 19.0433 10.4453C20.8899 9.74888 22.8519 9.51674 24.8139 9.51674C28.1609 9.63281 31.0462 10.5614 33.5852 12.4185C36.1243 14.2757 37.7401 16.8292 38.4326 19.9632L49.3967 18.106C48.4734 14.2757 46.8576 10.9096 44.6648 8.23995C42.472 5.57031 39.7021 3.48103 36.2397 2.08817C32.8928 0.695312 29.0842 -0.117188 24.9293 -0.117188C20.7745 -0.00111608 16.9659 0.579241 13.5035 2.08817C10.0412 3.48103 7.38667 5.57031 5.42467 8.35603C3.46266 11.0257 2.42395 14.3917 2.42395 18.2221C2.42395 22.981 3.69348 26.5792 6.34796 28.9007C9.00244 31.2221 12.234 32.9632 16.158 34.0078L32.3157 38.8828C34.7394 39.5792 36.4705 40.6239 37.6247 41.7846C37.9709 42.1328 38.2017 42.481 38.4326 42.9453H49.7429C49.5121 40.2757 48.5888 38.0703 47.3193 36.3292Z" fill="white"/>
</g>
<defs>
<clipPath id="clip0">
<rect width="322" height="65" fill="white"/>
</clipPath>
</defs>
</svg>
