<svg width="24" height="20" viewBox="0 0 24 20" fill="none" xmlns="http://www.w3.org/2000/svg">
<path d="M7.77942 19.3606C16.3644 19.3606 21.06 12.248 21.06 6.08002C21.06 5.878 21.06 5.67689 21.0463 5.47669C21.9598 4.81595 22.7483 3.99783 23.375 3.06064C22.5231 3.43811 21.6195 3.68565 20.6941 3.79501C21.6685 3.21168 22.3978 2.29421 22.7462 1.21334C21.83 1.75702 20.8276 2.14018 19.7823 2.34629C19.0786 1.59798 18.1478 1.10247 17.1341 0.936437C16.1204 0.770403 15.0802 0.943101 14.1745 1.42781C13.2688 1.91251 12.5481 2.68221 12.1239 3.61777C11.6998 4.55334 11.5958 5.60263 11.828 6.60327C9.97229 6.51024 8.15689 6.028 6.49963 5.18785C4.84238 4.3477 3.38033 3.16842 2.2084 1.72658C1.61152 2.75412 1.42871 3.97051 1.69719 5.1281C1.96566 6.28569 2.66524 7.29744 3.65348 7.95735C2.91068 7.93533 2.18408 7.73496 1.535 7.37313C1.535 7.39224 1.535 7.41226 1.535 7.43228C1.53529 8.50992 1.90834 9.55428 2.59086 10.3882C3.27338 11.2222 4.22335 11.7944 5.27965 12.0078C4.59248 12.1952 3.8715 12.2226 3.17209 12.0878C3.47035 13.0153 4.05103 13.8263 4.8329 14.4075C5.61478 14.9887 6.55876 15.311 7.53281 15.3293C5.88001 16.6282 3.83826 17.3334 1.73611 17.3313C1.36474 17.3305 0.993736 17.3081 0.625 17.2639C2.75953 18.6337 5.24317 19.3603 7.77942 19.3569" fill="white"/>
</svg>
